# xmcd CD database file
#
# Track frame offsets:
#	150
#	34561
#	64702
#	108350
#	145595
#	160413
#
# Disc length: 2937 seconds
#
# Revision: 0
# Processed by: cddbd v1.5.2PL0 Copyright (c) Steve Scherf et al.
# Submitted via: CDex 1.70beta2
#
DISCID=460b7706
DTITLE=Jukka Tolonen Band - Montreux Boogie
DYEAR=1978
DGENRE=Jazz
TTITLE0=Montreux Boogie (Live)
TTITLE1=Lama (Live Studio)
TTITLE2=Carnival (Live Studio)
TTITLE3=This One's For William (Live)
TTITLE4=Can I Have A Slice (Live)
TTITLE5=Hänryckning (Live)
EXTD=YEAR: 1978
EXTT0=
EXTT1=
EXTT2=
EXTT3=
EXTT4=
EXTT5=
PLAYORDER=
